<svg xmlns="http://www.w3.org/2000/svg" viewBox="0 0 29.185 29.185">
  <defs>
    <style>
      .cls-1 {
        fill: #e6e8f4;
      }
    </style>
  </defs>
  <path id="Search_Icon" data-name="Search Icon" class="cls-1" d="M23.165,20.484a12.361,12.361,0,0,0,2.554-7.613A12.8,12.8,0,0,0,12.951,0,12.96,12.96,0,0,0,0,12.87a12.96,12.96,0,0,0,12.951,12.87A12.16,12.16,0,0,0,20.612,23.2l5.472,5.438a1.771,1.771,0,0,0,2.554,0,1.745,1.745,0,0,0,0-2.538Zm-10.215,1.45a9.16,9.16,0,0,1-9.3-9.064,9.3,9.3,0,0,1,18.605,0A9.16,9.16,0,0,1,12.951,21.934Z"/>
</svg>
