<svg id="그룹_3" data-name="그룹 3" xmlns="http://www.w3.org/2000/svg" viewBox="0 0 65 81">
  <defs>
    <style>
      .cls-1, .cls-2, .cls-4 {
        fill: none;
        stroke: #e6e8f4;
        stroke-miterlimit: 10;
      }

      .cls-1, .cls-4 {
        stroke-linecap: round;
      }

      .cls-1, .cls-2 {
        stroke-width: 5px;
      }

      .cls-3 {
        fill: #e6e8f4;
      }

      .cls-4 {
        stroke-width: 4.5px;
      }
    </style>
  </defs>
  <path id="패스_3" data-name="패스 3" class="cls-1" d="M13.3,37.5V21.7A19.269,19.269,0,0,1,32.5,2.5h0A19.269,19.269,0,0,1,51.7,21.7v2.8"/>
  <path id="패스_4" data-name="패스 4" class="cls-2" d="M59.9,78.5H5.1a2.647,2.647,0,0,1-2.6-2.6V40.1a2.647,2.647,0,0,1,2.6-2.6H59.9a2.647,2.647,0,0,1,2.6,2.6V75.9A2.647,2.647,0,0,1,59.9,78.5Z"/>
  <circle id="타원_2" data-name="타원 2" class="cls-3" cx="5.7" cy="5.7" r="5.7" transform="translate(26.8 50)"/>
  <line id="선_3" data-name="선 3" class="cls-4" y2="9.6" transform="translate(32.5 55.7)"/>
</svg>
