<svg xmlns="http://www.w3.org/2000/svg" xmlns:xlink="http://www.w3.org/1999/xlink" viewBox="0 0 78.76 78.76"><defs><style>.cls-1{fill:#fff;}.cls-2,.cls-3,.cls-4,.cls-5,.cls-6{fill:none;stroke-miterlimit:10;stroke-width:3.45px;}.cls-2{stroke:url(#linear-gradient);}.cls-3{stroke:url(#linear-gradient-2);}.cls-4{stroke:url(#linear-gradient-3);}.cls-5{stroke:url(#linear-gradient-4);}.cls-6{stroke:url(#linear-gradient-17);}.cls-7{fill:url(#linear-gradient-18);}</style><linearGradient id="linear-gradient" x1="9.56" y1="49.67" x2="40.96" y2="49.67" gradientUnits="userSpaceOnUse"><stop offset="0" stop-color="#203970"/><stop offset="1" stop-color="#4b9cd2"/></linearGradient><linearGradient id="linear-gradient-2" x1="9.56" y1="29.08" x2="40.96" y2="29.08" xlink:href="#linear-gradient"/><linearGradient id="linear-gradient-3" x1="39.25" y1="48.29" x2="51.41" y2="48.29" xlink:href="#linear-gradient"/><linearGradient id="linear-gradient-4" x1="39.25" y1="30.46" x2="51.41" y2="30.46" xlink:href="#linear-gradient"/><linearGradient id="linear-gradient-17" x1="28.8" y1="39.38" x2="70.65" y2="39.38" xlink:href="#linear-gradient"/><linearGradient id="linear-gradient-18" x1="38.3" y1="39.38" x2="42.04" y2="39.38" xlink:href="#linear-gradient"/></defs><title>Asset 6</title><g id="Layer_2" data-name="Layer 2"><g id="Layer_1-2" data-name="Layer 1"><circle class="cls-1" cx="39.38" cy="39.38" r="39.38"/><path class="cls-2" d="M40.11,55.71a19.43,19.43,0,0,1-9.63,2.54,19,19,0,0,1-19.2-18.87"/><path class="cls-3" d="M11.28,39.38a19,19,0,0,1,19.2-18.87,19.32,19.32,0,0,1,9.63,2.54"/><path class="cls-4" d="M49.69,39.38a18.82,18.82,0,0,1-9.58,16.33"/><path class="cls-5" d="M40.11,23.05a18.81,18.81,0,0,1,9.58,16.33"/><path class="cls-2" d="M40.11,55.71a19.43,19.43,0,0,1-9.63,2.54,19,19,0,0,1-19.2-18.87"/><path class="cls-3" d="M11.28,39.38a19,19,0,0,1,19.2-18.87,19.32,19.32,0,0,1,9.63,2.54"/><path class="cls-4" d="M49.69,39.38a18.82,18.82,0,0,1-9.58,16.33"/><path class="cls-5" d="M40.11,23.05a18.81,18.81,0,0,1,9.58,16.33"/><path class="cls-2" d="M40.11,55.71a19.43,19.43,0,0,1-9.63,2.54,19,19,0,0,1-19.2-18.87"/><path class="cls-3" d="M11.28,39.38a19,19,0,0,1,19.2-18.87,19.32,19.32,0,0,1,9.63,2.54"/><path class="cls-4" d="M49.69,39.38a18.82,18.82,0,0,1-9.58,16.33"/><path class="cls-5" d="M40.11,23.05a18.81,18.81,0,0,1,9.58,16.33"/><path class="cls-2" d="M40.11,55.71a19.43,19.43,0,0,1-9.63,2.54,19,19,0,0,1-19.2-18.87"/><path class="cls-3" d="M11.28,39.38a19,19,0,0,1,19.2-18.87,19.32,19.32,0,0,1,9.63,2.54"/><path class="cls-4" d="M49.69,39.38a18.82,18.82,0,0,1-9.58,16.33"/><path class="cls-5" d="M40.11,23.05a18.81,18.81,0,0,1,9.58,16.33"/><ellipse class="cls-6" cx="49.73" cy="39.38" rx="19.2" ry="18.87"/><ellipse class="cls-7" cx="40.17" cy="39.38" rx="1.87" ry="1.98"/></g></g></svg>