<svg xmlns="http://www.w3.org/2000/svg" xmlns:xlink="http://www.w3.org/1999/xlink" viewBox="0 0 193.29 41.18"><defs><style>.cls-1{fill:#e6e8f4;}.cls-2,.cls-3,.cls-4,.cls-5,.cls-6{fill:none;stroke-miterlimit:10;stroke-width:3.45px;}.cls-2{stroke:url(#linear-gradient);}.cls-3{stroke:url(#linear-gradient-2);}.cls-4{stroke:url(#linear-gradient-3);}.cls-5{stroke:url(#linear-gradient-4);}.cls-6{stroke:url(#linear-gradient-5);}.cls-7{fill:url(#linear-gradient-6);}</style><linearGradient id="linear-gradient" y1="30.89" x2="31.4" y2="30.89" gradientUnits="userSpaceOnUse"><stop offset="0" stop-color="#203970"/><stop offset="1" stop-color="#4b9cd2"/></linearGradient><linearGradient id="linear-gradient-2" y1="10.3" x2="31.4" y2="10.3" xlink:href="#linear-gradient"/><linearGradient id="linear-gradient-3" x1="29.69" y1="29.51" x2="41.85" y2="29.51" xlink:href="#linear-gradient"/><linearGradient id="linear-gradient-4" x1="29.69" y1="11.68" x2="41.85" y2="11.68" xlink:href="#linear-gradient"/><linearGradient id="linear-gradient-5" x1="19.24" y1="20.59" x2="61.09" y2="20.59" xlink:href="#linear-gradient"/><linearGradient id="linear-gradient-6" x1="28.75" y1="20.59" x2="32.48" y2="20.59" xlink:href="#linear-gradient"/></defs><title>logo-with-textblatchlogo</title><g id="Layer_2" data-name="Layer 2"><g id="Layer_1-2" data-name="Layer 1"><path class="cls-1" d="M79.58,32V7h6a17.37,17.37,0,0,1,3.78.29,5.38,5.38,0,0,1,2.08,1,5.57,5.57,0,0,1,1.7,2.24,7.39,7.39,0,0,1,.61,3,6,6,0,0,1-.87,3.33,4.61,4.61,0,0,1-2.54,1.87,4.84,4.84,0,0,1,3.26,2,6.93,6.93,0,0,1,1.19,4.15,8.18,8.18,0,0,1-.51,2.89,6.3,6.3,0,0,1-1.42,2.31,5.21,5.21,0,0,1-2.41,1.47,18.73,18.73,0,0,1-4.83.43Zm3.77-14.43h1.47a7.09,7.09,0,0,0,3.89-.79,3,3,0,0,0,1.14-2.67,3.43,3.43,0,0,0-1.06-2.87c-.7-.55-2-.83-4-.83H83.35Zm0,11h1.32a18.94,18.94,0,0,0,3-.17,3.76,3.76,0,0,0,1.58-.59,3.34,3.34,0,0,0,1.1-1.33,4.3,4.3,0,0,0,.39-1.84,4.4,4.4,0,0,0-.47-2.08A3.3,3.3,0,0,0,89,21.16a4.35,4.35,0,0,0-1.26-.43,10.21,10.21,0,0,0-1.86-.14H83.35Z"/><path class="cls-1" d="M98.69,32V7h3.85V28.32h8.6V32Z"/><path class="cls-1" d="M129.93,32l-2.68-6.43h-9.38L115.12,32h-4L122.54,6,134,32Zm-10.64-9.81h6.6l-2.43-5.69c-.14-.36-.28-.78-.43-1.25s-.3-1-.46-1.58c-.12.54-.26,1.05-.41,1.52s-.29.91-.44,1.31Z"/><path class="cls-1" d="M142.09,10.43V32h-3.85V10.43H132V7h16.4v3.44Z"/><path class="cls-1" d="M169.14,13.06a11.63,11.63,0,0,0-3.45-2.2,10.11,10.11,0,0,0-3.82-.74,8.24,8.24,0,0,0-6.32,2.63,9.62,9.62,0,0,0-2.43,6.8,9.57,9.57,0,0,0,2.37,6.67,7.7,7.7,0,0,0,6,2.62,10.46,10.46,0,0,0,4-.78,12.48,12.48,0,0,0,3.64-2.37v4.59A11,11,0,0,1,165.73,32a12.94,12.94,0,0,1-4,.58,13.12,13.12,0,0,1-5-.94,11.41,11.41,0,0,1-4.05-2.76A12.37,12.37,0,0,1,150,24.69a14.81,14.81,0,0,1,0-10.33,12.61,12.61,0,0,1,2.69-4.24,11.94,11.94,0,0,1,4-2.78,12.79,12.79,0,0,1,4.94-1,12.19,12.19,0,0,1,4,.64A13.64,13.64,0,0,1,169.35,9Z"/><path class="cls-1" d="M174,32V7h3.85v9.2h11.64V7h3.85V32h-3.85V19.83H177.8V32Z"/><path class="cls-2" d="M30.55,36.92a19.31,19.31,0,0,1-9.62,2.54A19,19,0,0,1,1.72,20.59"/><path class="cls-3" d="M1.72,20.59A19,19,0,0,1,20.93,1.72a19.42,19.42,0,0,1,9.62,2.54"/><path class="cls-4" d="M40.13,20.59a18.78,18.78,0,0,1-9.58,16.33"/><path class="cls-5" d="M30.55,4.26a18.8,18.8,0,0,1,9.58,16.33"/><ellipse class="cls-6" cx="40.17" cy="20.59" rx="19.2" ry="18.87"/><ellipse class="cls-7" cx="30.61" cy="20.59" rx="1.87" ry="1.98"/></g></g></svg>